# xmcd
#
# Track frame offsets:
#	150
#	14245
#	29230
#	44002
#	60680
#	75240
#	89547
#	106212
#	120447
#	134670
#	149097
#	168662
#	181867
#	193697
#	218085
#	232292
#	250250
#	263860
#	273680
#	285970
#
# Disc length: 3952 seconds
#
# Revision: 1
# Processed by: cddbd v1.5.2PL0 Copyright (c) Steve Scherf et al.
# Submitted via: audiograbber 1.83.01
#
DISCID=3c0f6e14
DTITLE=Ladron - Solo Lo Mejor
DYEAR=1900
DGENRE=
TTITLE0=Mi Almohada
TTITLE1=Quiero Perderme En Tus Vesos
TTITLE2=Mitad Y Mitad
TTITLE3=Pido Mucho
TTITLE4=Yo Sin Tu Amor
TTITLE5=Busco
TTITLE6=Si Te Pregunto
TTITLE7=Ya No Se Que Aser
TTITLE8=Solo Se
TTITLE9=Busco
TTITLE10=Estoy Enamorado
TTITLE11=Esperando Tu Regreso
TTITLE12=A La Luz De La Luna
TTITLE13=Tu Me Quieres lastimar
TTITLE14=Cada Vez Que Te Vas
TTITLE15=Mi Castigo
TTITLE16=Amor En Llamas
TTITLE17=Es Dificil Decir Adios
TTITLE18=No Tengo Lagrimas
TTITLE19=Sola
EXTD=
EXTT0=
EXTT1=
EXTT2=
EXTT3=
EXTT4=
EXTT5=
EXTT6=
EXTT7=
EXTT8=
EXTT9=
EXTT10=
EXTT11=
EXTT12=
EXTT13=
EXTT14=
EXTT15=
EXTT16=
EXTT17=
EXTT18=
EXTT19=
PLAYORDER=
